# xmcd
#
# Track frame offsets: 
#        150
#        15611
#        30866
#        51738
#        62456
#        81077
#        99688
#        116313
#        128085
#        147010
#        157717
#
# Disc length: 2516 seconds
#
# Revision: 0
# Processed by: cddbd v1.4PL0 Copyright (c) Steve Scherf et al.
# Submitted via: ExactAudioCopy v0.90a11
#
DISCID=7e09d20b
DTITLE=IKE TURNER and The Kings Of Rhythm - Here And Now
DYEAR=2001
DGENRE=Blues
TTITLE0=Tore Up
TTITLE1=Baby's Got It
TTITLE2=You Can't Winnum' All
TTITLE3=Ike's Theme
TTITLE4=Catfish Blues
TTITLE5=Gave You What You Wanted
TTITLE6=I Need A-Nuddin'
TTITLE7=Swanee River Boogie
TTITLE8=Feelin' Low Down
TTITLE9=Rocket 88
TTITLE10=Cold Day In Hell
EXTD=
EXTT0=
EXTT1=
EXTT2=
EXTT3=
EXTT4=
EXTT5=
EXTT6=
EXTT7=
EXTT8=
EXTT9=
EXTT10=
PLAYORDER=
